<?xml version="1.0" encoding="UTF-8"?>
<svg id="Layer_1" data-name="Layer 1" xmlns="http://www.w3.org/2000/svg" viewBox="0 0 1701.23 779.31">
  <defs>
    <style>
      .cls-1 {
        stroke-linecap: round;
        stroke-linejoin: round;
      }

      .cls-1, .cls-2 {
        fill: #fff;
        stroke: #000;
      }

      .cls-2 {
        stroke-miterlimit: 10;
      }
    </style>
  </defs>
  <path class="cls-1" d="M1267.8.5v624.62h-350.85c4.13-7.84,6.47-16.78,6.47-26.26,0-22.45-13.11-41.82-32.09-50.85l-69.06,77.11h-14.38v-224.09l77.29-69.52c-9.01-19.02-28.34-32.16-50.74-32.16-9.6,0-18.65,2.42-26.55,6.67V.5h459.91Z"/>
  <path class="cls-1" d="M1700.73.5v623.97h-320.08c3.93-7.68,6.14-16.39,6.14-25.61,0-22.45-13.11-41.82-32.09-50.85l-68.48,76.46h-18.42V.5h432.93Z"/>
  <path class="cls-1" d="M481.27,624.12v153.69H166.41v-153.69h113.46c-4.59-8.14-7.21-17.54-7.21-27.55,0-22.4,13.11-41.73,32.09-50.74l70.27,78.29h106.25Z"/>
  <path class="cls-1" d="M885.18,331.51l-77.29,69.52v224.09h-107.39V.5h107.39v305.52c7.9-4.26,16.95-6.67,26.55-6.67,22.4,0,41.73,13.14,50.74,32.16Z"/>
  <path class="cls-1" d="M1700.73,648.68l-78.29,70.27c9.01,18.98,28.34,32.09,50.74,32.09,10.01,0,19.41-2.62,27.55-7.21v34.98H481.27v-153.69h-106.25l-70.27-78.29c-18.98,9.01-32.09,28.34-32.09,50.74,0,10.01,2.62,19.41,7.21,27.55h-113.46V.5h534.09v624.62h121.77l69.06-76.94c18.98,9.01,32.09,28.34,32.09,50.74,0,9.46-2.34,18.38-6.47,26.2h368.69l.58-.65,68.48-76.29c18.98,9.01,32.09,28.34,32.09,50.74,0,9.2-2.21,17.89-6.14,25.55-.11.22-.22.44-.33.65h320.41v23.56Z"/>
  <rect class="cls-2" x=".5" y="233.73" width="165.91" height="544.08"/>
  <polygon class="cls-1" points="482.27 1.5 482.27 93.96 270.73 93.96 270.73 428.57 167.41 428.57 167.41 1.5 482.27 1.5"/>
  <rect class="cls-1" x="545.65" y="233.73" width="153.85" height="290.38"/>
  <rect class="cls-1" x="1325.5" y="1.89" width="315.38" height="128.58"/>
  <rect class="cls-1" x="911.22" y="1.89" width="260" height="329"/>
  <rect class="cls-1" x="953.34" y="552.96" width="313.46" height="71.16"/>
</svg>