<?xml version="1.0" encoding="UTF-8"?>
<svg id="Layer_1" data-name="Layer 1" xmlns="http://www.w3.org/2000/svg" viewBox="0 0 659.01 502.94">
  <defs>
    <style>
      .cls-1 {
        fill: #fff;
        stroke: #000;
        stroke-miterlimit: 10;
      }
    </style>
  </defs>
  <path class="cls-1" d="M11.12,288.5c-28.25-107.09,1.37-207.63,70.77-255.38,31.42-21.62,91.74-46.71,118.46-23.08,45.38,40.12-72.72,161.82-33.85,306.15,21.37,79.34,87.4,155.22,173.85,178.46,117.01,31.46,255.33-37.85,267.69-110.77,6.55-38.63-26.58-52.72-70.77-169.23-27.21-71.75-42.44-113.39-23.08-135.38,25.96-29.47,109.39-18.34,135.38,26.15,26.55,45.44-9.89,120.38-60,152.31-84.04,53.53-159.87-43.64-280-4.62-108.15,35.13-131.03,141.29-201.54,132.31-45.63-5.82-77.26-55.53-96.92-96.92Z"/>
</svg>