<?xml version="1.0" encoding="utf-8"?>
<!-- Generator: Adobe Illustrator 27.5.0, SVG Export Plug-In . SVG Version: 6.00 Build 0)  -->
<svg version="1.1" id="Capa_1" xmlns="http://www.w3.org/2000/svg" xmlns:xlink="http://www.w3.org/1999/xlink" x="0px" y="0px"
	 viewBox="0 0 2372 1898" style="enable-background:new 0 0 2372 1898;" xml:space="preserve">
<path style="fill:#78AC69;" d="M2078.514,818.889c12.612-22.545,19.87-48.49,19.87-76.161c0-86.332-69.986-156.318-156.32-156.318
	c-5.427,0-10.789,0.281-16.076,0.821c-40.317-118.259-152.275-203.355-284.18-203.355c-123.293,0-229.177,74.34-275.411,180.616
	c-37.338-26.019-82.7-41.322-131.66-41.322c-28.87,0-56.476,5.351-81.945,15.04c-20.328-62.729-79.163-108.12-148.664-108.12
	c-64.467,0-119.787,39.042-143.69,94.756c-34.157-20.001-73.886-31.516-116.327-31.516c-95.904,0-178.133,58.546-212.902,141.846
	c-6.54-0.572-13.157-0.868-19.845-0.868c-124.272,0-225.014,100.742-225.014,225.014c0,3.472,0.106,6.919,0.262,10.353
	c-122.537,49.498-209.038,169.498-209.038,309.771c0,184.486,149.556,334.041,334.042,334.041h571.958h471.924h475.71
	c200.439,0,362.925-162.487,362.925-362.926C2294.133,1002.588,2205.526,875.386,2078.514,818.889z"/>
<path style="fill:#55784B;" d="M2078.514,818.889c12.612-22.545,19.87-48.49,19.87-76.161c0-86.332-69.986-156.318-156.32-156.318
	c-5.427,0-10.789,0.281-16.076,0.821c-40.317-118.259-152.275-203.355-284.18-203.355c-123.293,0-229.177,74.34-275.411,180.616
	c-37.338-26.019-82.7-41.322-131.66-41.322c-28.87,0-56.476,5.351-81.945,15.04c-20.328-62.729-79.163-108.12-148.664-108.12
	c-64.467,0-119.787,39.042-143.69,94.756c-34.157-20.001-73.886-31.516-116.327-31.516c-95.904,0-178.133,58.546-212.902,141.846
	c58.086,5.077,109.844,32.22,146.846,73.003c22.942-68.535,87.616-117.946,163.872-117.946c95.446,0,172.821,77.375,172.821,172.821
	c0,5.366-0.279,10.666-0.759,15.908c17.285-10.054,37.315-15.908,58.752-15.908c50.333,0,93.125,31.803,109.703,76.363
	c30.972-29.337,72.764-47.366,118.791-47.366c95.447,0,172.821,77.374,172.821,172.82c0,36.82-11.551,70.924-31.176,98.961
	c4.178-0.231,8.381-0.372,12.617-0.372c124.272,0,225.015,100.742,225.015,225.014c0,124.273-100.743,225.014-225.015,225.014
	h475.71c200.439,0,362.925-162.487,362.925-362.926C2294.133,1002.588,2205.526,875.386,2078.514,818.889z"/>
<path style="fill:#1D191E;" d="M292.954,1225.259l-0.684-0.088c-21.612-5.463-39.993-18.825-51.762-37.629
	c-11.771-18.814-15.756-41.191-11.224-63.007c0.156-0.746,0.607-1.394,1.253-1.798c0.646-0.398,1.425-0.534,2.162-0.338
	c21.609,5.458,39.991,18.825,51.762,37.629c11.772,18.815,15.756,41.192,11.224,63.007c-0.155,0.746-0.607,1.395-1.253,1.798
	C293.986,1225.111,293.471,1225.259,292.954,1225.259z M234.196,1128.582c-3.317,19.474,0.561,39.247,11.041,55.997
	c10.478,16.745,26.569,28.876,45.538,34.41c3.318-19.474-0.561-39.247-11.041-55.997
	C269.253,1146.247,253.163,1134.111,234.196,1128.582z"/>
<path style="fill:#1D191E;" d="M453.7,1441.419c-8.775,0-17.573-1.357-26.122-4.091c-21.135-6.771-38.623-21.288-49.242-40.875
	c-0.362-0.67-0.436-1.455-0.204-2.179c0.232-0.724,0.749-1.323,1.432-1.655c20.026-9.778,42.692-11.439,63.825-4.679
	c21.13,6.771,38.617,21.287,49.242,40.881c0.363,0.67,0.436,1.455,0.204,2.179c-0.231,0.725-0.749,1.324-1.432,1.656
	C479.482,1438.477,466.618,1441.419,453.7,1441.419z M384.701,1396.376c10.031,17.012,25.76,29.611,44.577,35.635
	c18.823,6.03,38.942,4.902,56.988-3.116c-10.036-17.017-25.762-29.616-44.577-35.641
	C422.869,1387.225,402.75,1388.352,384.701,1396.376z"/>
<path style="fill:#1D191E;" d="M508.109,1201.002l-1.31-0.327c-19.676-10.475-34.325-27.851-41.251-48.932
	s-5.439-43.757,4.186-63.858c0.33-0.686,0.924-1.209,1.646-1.444c0.727-0.245,1.512-0.174,2.182,0.186
	c19.672,10.469,34.32,27.845,41.249,48.926c6.926,21.081,5.442,43.758-4.183,63.863c-0.33,0.686-0.923,1.209-1.645,1.443
	L508.109,1201.002z M473.533,1092.99c-7.885,18.117-8.854,38.244-2.685,57.01c6.166,18.771,18.885,34.404,35.978,44.313
	c7.885-18.117,8.852-38.25,2.683-57.016C503.343,1118.526,490.624,1102.898,473.533,1092.99z"/>
<path style="fill:#1D191E;" d="M529.754,829.516c-15.293,0-30.346-4.096-43.727-12.066c-19.059-11.357-32.827-29.442-38.762-50.925
	c-0.201-0.73-0.098-1.514,0.292-2.168c0.389-0.654,1.029-1.117,1.77-1.291c21.701-5.011,44.171-1.519,63.236,9.832
	c19.062,11.358,32.827,29.442,38.762,50.926c0.201,0.73,0.098,1.514-0.292,2.168c-0.389,0.654-1.029,1.117-1.77,1.291
	C542.792,828.775,536.249,829.516,529.754,829.516z M453.482,767.887c5.946,18.837,18.428,34.661,35.399,44.771
	c16.976,10.11,36.825,13.547,56.225,9.805c-5.943-18.837-18.425-34.655-35.398-44.77
	C492.735,767.576,472.871,764.128,453.482,767.887z"/>
<path style="fill:#1D191E;" d="M969.509,1112.099l-0.749-0.104c-0.733-0.201-1.351-0.697-1.711-1.367
	c-10.527-19.643-13.038-42.226-7.073-63.606c5.964-21.37,19.811-39.394,38.985-50.746c0.659-0.387,1.441-0.496,2.171-0.283
	c0.732,0.202,1.351,0.697,1.71,1.367c10.527,19.643,13.041,42.232,7.076,63.607c-5.964,21.369-19.812,39.388-38.988,50.746
	L969.509,1112.099z M965.348,1048.525L965.348,1048.525c-5.311,19.032-3.432,39.094,5.264,56.831
	c16.628-10.671,28.625-26.86,33.936-45.893c5.308-19.032,3.429-39.094-5.267-56.83
	C982.659,1013.303,970.661,1029.493,965.348,1048.525z"/>
<path style="fill:#1D191E;" d="M845.559,1401.757c-4.807,0-9.647-0.403-14.476-1.214c-0.752-0.125-1.416-0.555-1.844-1.182
	c-0.428-0.632-0.58-1.406-0.422-2.152c4.641-21.794,17.303-40.668,35.654-53.142c18.357-12.479,40.568-17.311,62.539-13.591
	c0.749,0.125,1.413,0.556,1.841,1.182c0.428,0.631,0.58,1.405,0.422,2.151c-4.646,21.8-17.308,40.674-35.655,53.137
	C879.304,1396.681,862.636,1401.757,845.559,1401.757z M834.943,1395.482c19.618,2.604,39.209-2.037,55.539-13.144
	c16.339-11.101,27.854-27.639,32.664-46.802c-19.564-2.582-39.193,2.037-55.537,13.138
	C851.265,1359.787,839.75,1376.325,834.943,1395.482z"/>
<path style="fill:#1D191E;" d="M691.987,1262.305c-0.591,0-1.171-0.191-1.653-0.545c-0.613-0.452-1.016-1.133-1.111-1.885
	c-2.871-22.105,2.797-44.111,15.96-61.978c13.163-17.862,32.506-29.796,54.463-33.598c0.744-0.164,1.514,0.048,2.13,0.501
	c0.612,0.452,1.016,1.133,1.111,1.885c2.87,22.099-2.797,44.106-15.96,61.972c-13.158,17.867-32.501,29.802-54.464,33.604
	L691.987,1262.305z M709.671,1201.209L709.671,1201.209c-11.717,15.906-17.082,35.33-15.247,55
	c19.332-4.075,36.294-14.953,48.014-30.864c11.717-15.906,17.082-35.325,15.247-54.995
	C738.358,1174.426,721.393,1185.303,709.671,1201.209z"/>
<path style="fill:#1D191E;" d="M760.836,882.283c-0.7,0-1.378-0.262-1.893-0.741c-0.558-0.518-0.882-1.237-0.896-1.999
	c-0.392-22.284,7.689-43.528,22.756-59.816c15.064-16.287,35.614-25.994,57.862-27.339c0.771-0.087,1.507,0.218,2.062,0.735
	c0.558,0.518,0.882,1.237,0.896,1.999c0.392,22.284-7.689,43.528-22.756,59.815c-15.061,16.287-35.61,25.994-57.862,27.34
	L760.836,882.283z M836.045,798.189c-19.667,1.901-37.732,10.823-51.146,25.329c-13.417,14.5-20.909,33.206-21.274,52.958
	c19.667-1.901,37.736-10.824,51.147-25.329C828.188,836.646,835.68,817.94,836.045,798.189z M782.851,821.623h0.055H782.851z"/>
<path style="fill:#1D191E;" d="M1109.425,1276.827l-1.174-0.262c-20.217-9.375-35.796-25.923-43.869-46.595
	c-8.067-20.667-7.825-43.392,0.686-63.994c0.289-0.702,0.852-1.253,1.563-1.53c0.7-0.272,1.498-0.256,2.187,0.071
	c20.217,9.375,35.796,25.923,43.866,46.595c8.07,20.667,7.828,43.398-0.683,63.994c-0.289,0.703-0.853,1.253-1.563,1.531
	L1109.425,1276.827z M1069.141,1170.874c-6.88,18.515-6.746,38.664,0.438,57.07c7.188,18.4,20.742,33.315,38.351,42.265
	c6.88-18.515,6.744-38.664-0.441-57.07C1100.304,1194.738,1086.749,1179.824,1069.141,1170.874z"/>
<path style="fill:#1D191E;" d="M1242.497,1446.768c-14.114,0-28.067-3.497-40.729-10.36c-19.506-10.579-33.99-28.092-40.789-49.319
	c-0.231-0.725-0.158-1.509,0.204-2.179c0.363-0.67,0.981-1.16,1.716-1.362c21.489-5.889,44.073-3.307,63.582,7.272
	c19.506,10.578,33.99,28.091,40.786,49.319c0.232,0.725,0.158,1.509-0.204,2.179c-0.363,0.67-0.981,1.16-1.716,1.362
	C1257.806,1445.744,1250.126,1446.768,1242.497,1446.768z M1167.247,1388.194c6.7,18.586,19.811,33.892,37.179,43.311
	c17.371,9.407,37.349,12.049,56.574,7.522c-6.697-18.581-19.809-33.887-37.177-43.305
	C1206.456,1386.309,1186.47,1383.673,1167.247,1388.194z"/>
<path style="fill:#1D191E;" d="M1327.449,1292.172l-1.43-0.398c-0.654-0.387-1.12-1.03-1.288-1.77
	c-4.982-21.723-1.455-44.177,9.927-63.22c11.379-19.043,29.486-32.781,50.98-38.686c0.727-0.191,1.52-0.088,2.168,0.294
	c0.654,0.392,1.119,1.035,1.288,1.776c4.982,21.723,1.458,44.176-9.927,63.219c-11.385,19.043-29.488,32.781-50.98,38.686
	L1327.449,1292.172z M1384.268,1194.313c-18.85,5.921-34.691,18.379-44.822,35.336c-10.135,16.951-13.607,36.801-9.889,56.209
	c18.847-5.915,34.685-18.373,44.822-35.336C1384.516,1233.565,1387.986,1213.716,1384.268,1194.313z M1337.052,1228.216h0.055
	H1337.052z"/>
<path style="fill:#1D191E;" d="M1326.506,1009.137c-21.01,0-41.063-7.555-56.809-21.49h-0.002
	c-16.619-14.702-26.784-35.03-28.62-57.239c-0.063-0.757,0.188-1.509,0.692-2.076c0.504-0.572,1.218-0.909,1.977-0.942
	c22.252-0.828,43.686,6.716,60.306,21.424c16.622,14.697,26.787,35.025,28.622,57.239c0.063,0.758-0.188,1.509-0.692,2.076
	c-0.504,0.572-1.218,0.91-1.977,0.943C1328.835,1009.115,1327.669,1009.137,1326.506,1009.137z M1273.391,983.475
	c14.721,13.019,33.472,20.084,53.118,20.084h0.305c-2.337-19.615-11.66-37.482-26.457-50.566
	c-14.721-13.024-33.472-20.089-53.118-20.089h-0.305C1249.268,952.513,1258.593,970.38,1273.391,983.475z"/>
<path style="fill:#1D191E;" d="M1513.775,1366.928c-6.006,0-12.049-0.632-18.052-1.906c-0.743-0.158-1.389-0.615-1.792-1.258
	c-0.4-0.648-0.517-1.432-0.329-2.168c5.558-21.582,19.011-39.901,37.874-51.585c18.866-11.684,41.26-15.557,63.057-10.927
	c0.744,0.158,1.392,0.616,1.792,1.258c0.401,0.648,0.518,1.432,0.33,2.168c-5.559,21.581-19.011,39.9-37.875,51.579
	C1545.109,1362.554,1529.582,1366.928,1513.775,1366.928z M1499.794,1360.131c19.46,3.394,39.252-0.376,56.049-10.78
	c16.796-10.398,29.001-26.435,34.616-45.375c-19.455-3.41-39.25,0.37-56.048,10.774
	C1517.614,1325.154,1505.408,1341.19,1499.794,1360.131z"/>
<path style="fill:#1D191E;" d="M560.497,915.173c-0.648,0-1.299-0.224-1.827-0.681c-62.155-53.872-150.721-76.637-231.162-59.418
	c-1.512,0.283-2.988-0.638-3.309-2.146c-0.324-1.503,0.637-2.985,2.144-3.312c82.097-17.567,172.528,5.665,235.983,60.66
	c1.162,1.008,1.288,2.773,0.28,3.933C562.052,914.846,561.277,915.173,560.497,915.173z"/>
<path style="fill:#1D191E;" d="M706.7,880.888c-0.866,0-1.719-0.403-2.266-1.16c-31.855-44.172-45.056-102.532-35.314-156.122
	c0.276-1.514,1.73-2.494,3.241-2.244c1.517,0.278,2.522,1.726,2.244,3.246c-9.472,52.119,3.37,108.889,34.355,151.862
	c0.899,1.247,0.619,2.99-0.632,3.889C707.836,880.719,707.263,880.888,706.7,880.888z"/>
<path style="fill:#1D191E;" d="M975.474,982.124c-1.03,0-2.021-0.572-2.506-1.558c-28.905-58.748-22.138-133.565,16.845-186.173
	c0.92-1.232,2.661-1.498,3.903-0.578c1.237,0.915,1.495,2.664,0.58,3.901c-37.771,50.974-44.332,123.465-16.323,180.388
	c0.678,1.383,0.112,3.056-1.272,3.731L975.474,982.124z"/>
<path style="fill:#1D191E;" d="M1314.522,1145.703l-1.345-0.349c-1.348-0.741-1.839-2.44-1.095-3.786
	c19.798-35.892,57.285-61.896,97.829-67.872c1.514-0.191,2.941,0.833,3.164,2.353c0.224,1.525-0.828,2.941-2.353,3.17
	c-38.855,5.72-74.782,30.641-93.754,65.04C1316.458,1145.179,1315.506,1145.703,1314.522,1145.703z"/>
<path style="fill:#1D191E;" d="M1189.771,1012.203c-0.893,0-1.767-0.425-2.307-1.22c-16.687-24.507-27.302-51.443-30.7-77.894
	c-3.745-29.175,1.315-58.416,14.25-82.339c0.735-1.351,2.418-1.857,3.78-1.122c1.357,0.73,1.86,2.424,1.127,3.78
	c-12.384,22.9-17.224,50.947-13.623,78.973c3.284,25.585,13.582,51.678,29.774,75.465c0.869,1.274,0.539,3.007-0.735,3.873
	C1190.858,1012.045,1190.31,1012.203,1189.771,1012.203z"/>
<path style="fill:#1D191E;" d="M573.759,1389.218c-1.07,0-2.09-0.616-2.553-1.656c-20.974-47.184-65.6-82.018-116.465-90.913
	c-1.517-0.262-2.533-1.71-2.269-3.225c0.264-1.52,1.716-2.571,3.227-2.266c52.674,9.206,98.886,45.282,120.606,94.138
	c0.624,1.405-0.008,3.056-1.416,3.682L573.759,1389.218z"/>
<path style="fill:#1D191E;" d="M860.92,1203.987c-1.288,0-2.446-0.899-2.724-2.206c-11.218-52.587-53.835-96.551-106.048-109.401
	c-15.274-3.753-27.565-3.688-37.583,0.185c-1.443,0.567-3.05-0.152-3.609-1.591c-0.556-1.438,0.158-3.05,1.594-3.606
	c11.123-4.319,24.512-4.445,40.933-0.403c54.243,13.346,98.515,59.02,110.166,113.65c0.322,1.509-0.637,2.99-2.143,3.312
	L860.92,1203.987z"/>
<path style="fill:#1D191E;" d="M1053.873,1418.53l-0.842-0.131c-1.468-0.463-2.282-2.031-1.817-3.502
	c10.255-32.367,35.279-60.867,68.656-78.194c29.05-15.089,64.625-22.089,102.883-20.16c1.539,0.076,2.724,1.383,2.647,2.92
	c-0.076,1.536-1.356,2.887-2.925,2.647c-37.288-1.83-71.862,4.908-100.035,19.539c-32.075,16.652-56.1,43.964-65.911,74.936
	C1056.155,1417.772,1055.057,1418.53,1053.873,1418.53z"/>
<path style="fill:#1D191E;" d="M2132.772,1194.776c-0.518,0-1.032-0.147-1.479-0.424c-0.646-0.403-1.098-1.051-1.253-1.798
	c-4.535-21.816-0.551-44.193,11.224-63.007c11.771-18.804,30.155-32.171,51.762-37.629c0.738-0.196,1.52-0.065,2.162,0.338
	c0.646,0.403,1.098,1.051,1.253,1.798c4.532,21.821,0.547,44.193-11.224,63.007c-11.771,18.804-30.153,32.171-51.761,37.629
	L2132.772,1194.776z M2191.531,1098.1c-18.967,5.529-35.055,17.66-45.539,34.41c-10.483,16.75-14.361,36.524-11.041,55.997
	c18.967-5.529,35.058-17.665,45.539-34.41C2190.969,1137.352,2194.848,1117.573,2191.531,1098.1z"/>
<path style="fill:#1D191E;" d="M1972.028,1410.941c-12.918,0-25.778-2.947-37.705-8.77c-0.684-0.333-1.201-0.932-1.433-1.656
	c-0.231-0.725-0.158-1.509,0.205-2.179c10.622-19.594,28.107-34.111,49.242-40.881c21.124-6.765,43.793-5.099,63.825,4.679
	c0.683,0.332,1.201,0.932,1.432,1.656c0.232,0.724,0.158,1.509-0.204,2.179c-10.625,19.594-28.113,34.11-49.242,40.876
	C1989.601,1409.58,1980.801,1410.941,1972.028,1410.941z M1939.46,1398.413c18.052,8.018,38.171,9.141,56.988,3.116
	c18.812-6.019,34.54-18.619,44.577-35.635c-18.047-8.013-38.166-9.157-56.988-3.121
	C1965.219,1368.797,1949.494,1381.396,1939.46,1398.413z"/>
<path style="fill:#1D191E;" d="M1936.625,1145.703l-0.872-0.142c-0.722-0.234-1.315-0.757-1.645-1.443
	c-9.625-20.106-11.109-42.788-4.183-63.857c6.926-21.081,21.576-38.457,41.249-48.932c0.67-0.365,1.465-0.431,2.182-0.185
	c0.722,0.234,1.316,0.757,1.645,1.444c9.625,20.1,11.112,42.782,4.186,63.863c-6.929,21.08-21.576,38.457-41.251,48.927
	L1936.625,1145.703z M1971.201,1037.696c-17.091,9.903-29.809,25.536-35.976,44.307c-6.169,18.76-5.199,38.887,2.682,57.005
	c17.094-9.903,29.81-25.531,35.979-44.302C1980.052,1075.935,1979.085,1055.808,1971.201,1037.696z"/>
<path style="fill:#1D191E;" d="M1910.437,774.064c-6.493,0-13.032-0.741-19.503-2.233c-0.741-0.168-1.381-0.637-1.77-1.291
	s-0.493-1.438-0.292-2.168c5.932-21.484,19.697-39.568,38.762-50.926c19.058-11.352,41.51-14.849,63.234-9.837
	c0.741,0.168,1.381,0.637,1.771,1.291c0.389,0.654,0.493,1.438,0.291,2.168c-5.932,21.489-19.697,39.574-38.759,50.926
	C1940.792,769.962,1925.736,774.058,1910.437,774.064z M1895.09,767.01c19.4,3.747,39.258,0.299,56.226-9.81
	c16.973-10.11,29.455-25.929,35.396-44.771c-19.401-3.748-39.255-0.3-56.223,9.81C1913.512,732.349,1901.03,748.168,1895.09,767.01z
	 M1929.061,719.843h0.055H1929.061z"/>
<path style="fill:#1D191E;" d="M1734.962,622.278l-1.422-0.386c-19.177-11.358-33.023-29.382-38.986-50.752
	c-5.964-21.369-3.451-43.958,7.076-63.607c0.359-0.67,0.978-1.166,1.71-1.367c0.73-0.207,1.514-0.098,2.171,0.283
	c19.179,11.363,33.023,29.387,38.985,50.751c5.965,21.375,3.451,43.959-7.076,63.607c-0.36,0.67-0.978,1.166-1.711,1.368
	L1734.962,622.278z M1705.193,512.812c-8.696,17.736-10.576,37.798-5.267,56.825c5.311,19.032,17.308,35.227,33.933,45.898
	c8.696-17.741,10.576-37.803,5.267-56.83C1733.818,539.677,1721.821,523.489,1705.193,512.812z"/>
<path style="fill:#1D191E;" d="M1043.988,622.284c-17.077,0-33.745-5.077-48.063-14.811c-18.349-12.468-31.011-31.338-35.652-53.137
	c-0.158-0.746-0.006-1.52,0.422-2.151c0.427-0.626,1.092-1.057,1.841-1.182c21.982-3.71,44.179,1.117,62.539,13.591
	c18.349,12.474,31.01,31.348,35.654,53.143c0.158,0.746,0.005,1.519-0.422,2.151c-0.428,0.626-1.092,1.056-1.844,1.182
	C1053.635,621.88,1048.796,622.284,1043.988,622.284z M966.399,556.062c4.81,19.163,16.325,35.695,32.664,46.802
	c16.333,11.102,35.957,15.726,55.539,13.144c-4.807-19.158-16.322-35.695-32.664-46.808
	C1005.591,558.099,985.973,553.475,966.399,556.062z"/>
<path style="fill:#1D191E;" d="M1827.49,1323.062l-0.476-0.044c-21.96-3.802-41.3-15.737-54.461-33.598
	c-13.163-17.867-18.831-39.879-15.96-61.978c0.095-0.752,0.498-1.433,1.111-1.885c0.61-0.452,1.381-0.659,2.13-0.501
	c21.958,3.802,41.3,15.742,54.461,33.603c13.163,17.867,18.831,39.874,15.96,61.973c-0.095,0.752-0.498,1.432-1.111,1.885
	C1828.662,1322.872,1828.082,1323.062,1827.49,1323.062z M1761.795,1231.109c-1.836,19.67,3.53,39.094,15.247,55
	c11.72,15.906,28.682,26.784,48.011,30.859c1.836-19.67-3.53-39.089-15.247-54.995
	C1798.087,1246.061,1781.124,1235.183,1761.795,1231.109z"/>
<path style="fill:#1D191E;" d="M1662.777,1056.788c-15.62,0.006-30.973-4.265-44.545-12.555
	c-18.934-11.565-32.498-29.802-38.193-51.351c-0.193-0.735-0.079-1.519,0.316-2.168c0.398-0.648,1.04-1.106,1.784-1.269
	c21.783-4.766,44.193-1.024,63.125,10.54c18.931,11.565,32.495,29.796,38.19,51.345c0.194,0.736,0.079,1.52-0.316,2.168
	c-0.397,0.648-1.04,1.106-1.784,1.269C1675.185,1056.124,1668.958,1056.788,1662.777,1056.788z M1586.241,994.309
	c5.733,18.907,18.038,34.867,34.9,45.163c16.862,10.295,36.67,13.971,56.112,10.431c-5.736-18.907-18.038-34.862-34.898-45.157
	C1625.498,994.445,1605.687,990.79,1586.241,994.309z"/>
<path style="fill:#1D191E;" d="M1670.141,883.585l-1.014-0.191c-0.711-0.278-1.275-0.828-1.563-1.531
	c-8.511-20.601-8.753-43.327-0.683-63.994c8.07-20.672,23.649-37.22,43.866-46.595c0.687-0.327,1.482-0.343,2.187-0.071
	c0.711,0.278,1.275,0.828,1.563,1.531c8.511,20.601,8.753,43.327,0.684,63.994c-8.07,20.672-23.649,37.22-43.866,46.595
	L1670.141,883.585z M1710.425,777.632c-17.608,8.95-31.163,23.864-38.348,42.264c-7.187,18.406-7.324,38.555-0.441,57.07
	c17.608-8.95,31.163-23.865,38.348-42.265C1717.172,816.296,1717.308,796.146,1710.425,777.632z"/>
<path style="fill:#1D191E;" d="M1218.854,742.508l-1.155-0.25c-0.692-0.316-1.225-0.899-1.476-1.618
	c-7.378-21.031-6.384-43.741,2.797-63.933c9.181-20.198,25.634-35.875,46.331-44.138c0.705-0.288,1.495-0.267,2.189,0.049
	c0.692,0.316,1.226,0.899,1.477,1.613c7.381,21.026,6.387,43.735-2.795,63.939c-9.181,20.193-25.637,35.869-46.333,44.138
	L1218.854,742.508z M1264.686,638.898c-18.068,7.98-32.413,22.132-40.589,40.119c-8.177,17.981-9.405,38.092-3.544,56.961
	c18.071-7.985,32.416-22.138,40.592-40.119C1269.319,677.867,1270.55,657.756,1264.686,638.898z M1221.558,677.861h0.054H1221.558z"
	/>
<path style="fill:#1D191E;" d="M1471.94,742.508c-1.163,0-2.326-0.022-3.497-0.065c-0.76-0.033-1.474-0.37-1.977-0.943
	c-0.504-0.566-0.754-1.318-0.692-2.075c1.839-22.214,12.005-42.543,28.625-57.239c16.614-14.702,37.997-22.306,60.306-21.424
	c0.76,0.033,1.473,0.37,1.977,0.943c0.504,0.566,0.755,1.318,0.692,2.075c-1.838,22.214-12.006,42.543-28.625,57.239
	C1513.006,734.947,1492.95,742.508,1471.94,742.508z M1471.632,736.93h0.305c19.648,0,38.399-7.065,53.115-20.084h0.003
	c14.798-13.095,24.12-30.956,26.46-50.572h-0.305c-19.648,0-38.4,7.065-53.116,20.084
	C1483.295,699.454,1473.972,717.315,1471.632,736.93z"/>
<path style="fill:#1D191E;" d="M1789.524,890.23c-0.814,0-1.62-0.354-2.171-1.035c-0.969-1.198-0.784-2.952,0.414-3.922
	c74.955-60.611,175.971-84.693,270.215-64.489c1.506,0.327,2.465,1.808,2.141,3.312c-0.321,1.509-1.792,2.446-3.312,2.146
	c-92.62-19.888-191.879,3.813-265.536,63.367C1790.758,890.029,1790.139,890.23,1789.524,890.23z"/>
<path style="fill:#1D191E;" d="M1807.797,718.345l-0.202-0.006c-1.536-0.109-2.691-1.443-2.582-2.98
	c1.489-20.988,10.426-42.826,25.844-63.149c14.296-18.858,32.511-34.567,48.46-47.81c1.185-0.986,2.942-0.817,3.927,0.365
	c0.983,1.182,0.82,2.941-0.365,3.927c-15.71,13.046-33.639,28.499-47.578,46.883c-14.762,19.463-23.314,40.271-24.727,60.175
	C1810.471,717.222,1809.248,718.345,1807.797,718.345z"/>
<path style="fill:#1D191E;" d="M1442.678,699.71c-1.52,0-2.762-1.214-2.789-2.74c-0.752-43.958-23.752-86.702-60.026-111.553
	c-1.269-0.866-1.593-2.604-0.724-3.873c0.871-1.27,2.606-1.607,3.878-0.725c37.738,25.847,61.667,70.317,62.449,116.052
	c0.027,1.541-1.202,2.811-2.74,2.838H1442.678z"/>
<path style="fill:#1D191E;" d="M1152.02,754.34c-0.73,0-1.46-0.283-2.008-0.85c-23.515-24.37-38.517-56.323-42.245-89.976
	c-3.729-33.653,3.913-68.117,21.522-97.042c0.798-1.318,2.517-1.743,3.832-0.932c1.318,0.801,1.735,2.517,0.934,3.83
	c-16.971,27.878-24.338,61.095-20.743,93.533c3.593,32.433,18.052,63.226,40.715,86.708c1.07,1.111,1.038,2.876-0.071,3.944
	C1153.414,754.078,1152.717,754.34,1152.02,754.34z"/>
</svg>
